<?xml version="1.0" encoding="UTF-8" standalone="no"?>
<svg
   version="1.0"
   width="1000pt"
   height="171pt"
   viewBox="0 0 999.99998 171"
   preserveAspectRatio="xMidYMid"
   id="svg1"
   sodipodi:docname="teste-3.svg"
   inkscape:version="1.4 (e7c3feb100, 2024-10-09)"
   inkscape:export-filename="arabesco_final.svg"
   inkscape:export-xdpi="96"
   inkscape:export-ydpi="96"
   xmlns:inkscape="http://www.inkscape.org/namespaces/inkscape"
   xmlns:sodipodi="http://sodipodi.sourceforge.net/DTD/sodipodi-0.dtd"
   xmlns="http://www.w3.org/2000/svg"
   xmlns:svg="http://www.w3.org/2000/svg">
  <defs
     id="defs1" />
  <sodipodi:namedview
     id="namedview1"
     pagecolor="#ffffff"
     bordercolor="#000000"
     borderopacity="0.25"
     inkscape:showpageshadow="2"
     inkscape:pageopacity="0.0"
     inkscape:pagecheckerboard="0"
     inkscape:deskcolor="#d1d1d1"
     inkscape:document-units="pt"
     showguides="true"
     inkscape:zoom="1"
     inkscape:cx="542"
     inkscape:cy="13"
     inkscape:window-width="2560"
     inkscape:window-height="1011"
     inkscape:window-x="0"
     inkscape:window-y="32"
     inkscape:window-maximized="1"
     inkscape:current-layer="svg1">
    <sodipodi:guide
       position="489.77281,54.627731"
       orientation="0,-1"
       id="guide7"
       inkscape:locked="false" />
    <sodipodi:guide
       position="495.77374,50.658094"
       orientation="0,-1"
       id="guide8"
       inkscape:locked="false" />
    <sodipodi:guide
       position="493.0081,63.50872"
       orientation="1,0"
       id="guide9"
       inkscape:locked="false" />
    <sodipodi:guide
       position="500.44335,55.927734"
       orientation="0,-1"
       id="guide10"
       inkscape:locked="false" />
    <sodipodi:guide
       position="511.13393,48.809664"
       orientation="1,0"
       id="guide11"
       inkscape:locked="false" />
    <sodipodi:guide
       position="497.93437,62.199467"
       orientation="1,0"
       id="guide12"
       inkscape:locked="false" />
    <sodipodi:guide
       position="497.86299,62.328633"
       orientation="0,-1"
       id="guide13"
       inkscape:locked="false" />
    <sodipodi:guide
       position="488.01562,61.898437"
       orientation="1,0"
       id="guide14"
       inkscape:locked="false" />
    <sodipodi:guide
       position="500.92271,59.456742"
       orientation="0,-1"
       id="guide15"
       inkscape:locked="false" />
    <sodipodi:guide
       position="303.04687,83.062499"
       orientation="0,-1"
       id="guide16"
       inkscape:locked="false" />
    <sodipodi:guide
       position="741.86549,95.892"
       orientation="0.69197923,-0.72191741"
       id="guide17"
       inkscape:locked="false" />
    <sodipodi:guide
       position="753.16405,94.406249"
       orientation="0,-1"
       id="guide18"
       inkscape:locked="false" />
    <sodipodi:guide
       position="785.69006,95.104529"
       orientation="1,0"
       id="guide19"
       inkscape:locked="false" />
    <sodipodi:guide
       position="737.2251,95.892"
       orientation="0.70710613,-0.70710743"
       id="guide20"
       inkscape:locked="false" />
    <sodipodi:guide
       position="829.84087,97.640624"
       orientation="0.616435,0.7874058"
       id="guide21"
       inkscape:locked="false" />
    <sodipodi:guide
       position="825.56249,97.406249"
       orientation="-0.61964225,-0.78488438"
       id="guide22"
       inkscape:locked="false" />
    <sodipodi:guide
       position="890.96915,88.965855"
       orientation="1,0"
       id="guide23"
       inkscape:locked="false" />
    <sodipodi:guide
       position="754.09441,96.748843"
       orientation="0,-1"
       id="guide24"
       inkscape:locked="false" />
    <sodipodi:guide
       position="888.65623,81.421874"
       orientation="0,-1"
       id="guide25"
       inkscape:locked="false" />
    <sodipodi:guide
       position="199.15547,111.75215"
       orientation="0,-1"
       id="guide26"
       inkscape:locked="false" />
    <sodipodi:guide
       position="783.47128,113.53352"
       orientation="0,-1"
       id="guide27"
       inkscape:locked="false" />
    <sodipodi:guide
       position="782.80971,115.72842"
       orientation="0,-1"
       id="guide28"
       inkscape:locked="false" />
    <sodipodi:guide
       position="142.875,90.046874"
       orientation="-0.69395475,0.72001862"
       id="guide29"
       inkscape:locked="false" />
    <inkscape:page
       x="0"
       y="0"
       width="999.99994"
       height="171"
       id="page2"
       margin="0"
       bleed="0" />
  </sodipodi:namedview>
  <path
     d="m 927.28305,48.697315 c -3.62969,-0.04375 -7.26709,0.674902 -10.64209,2.274902 -6.1,2.8 -8.69941,5.60039 -11.39941,11.90039 -2.7,6.2 -2.7,11.499903 0,16.899903 3.9,7.8 10.49892,10.999902 19.39892,9.399902 4.8,-0.9 9.50098,-5.600586 9.50098,-9.600586 0,-4.2 -1.8001,-4.599609 -7.1001,-1.599609 -5.2,3.1 -6.70029,3.199805 -10.80029,0.799805 -7,-3.9 -7.10029,-13.500293 -0.30029,-19.800293 8.5,-7.8 22.80039,-5.000293 29.90039,5.699707 2.5,3.8 2.6997,5.000879 2.6997,12.900879 -0.1,8.2 -0.30029,9.199902 -3.30029,13.899902 -1.8,2.8 -4.6999,6.199219 -6.3999,7.699219 -17.7,14.900004 -51.10029,13.700294 -78.30029,-2.699707 -10.79381,-8.452214 -7.79932,-6.866268 13.70068,-6.899414 13.69998,-0.02112 14.20975,-0.232756 15.60524,-0.439513 1.12554,-0.243176 1.33732,-0.554543 0.9867,-0.797997 -1.00293,-0.69639 -11.32648,-0.313948 -23.52648,-0.413948 -17.7,-0.3 -16.31751,0.162059 -18.58155,0.08901 -2.70112,-1.933146 -12.55609,-9.822815 -14.76727,-11.453145 0.89887,-0.06854 18.88307,0.01511 32.48307,0.01511 23.1,0 24.80097,0.389193 24.50097,-1.310806 -0.0305,-1.6 -2.64851,-0.809231 -30.04851,-1.109231 l -29.95115,0.07829 -8.2292,-6.393093 c -7.9,-5.1 -15.96115,-8.530113 -26.16058,-10.964384 -21.99714,-4.69283 -37.44243,1.208767 -52.64468,11.808767 0,0 -3.81308,3.366298 -5.78525,5.587055 l -244.21409,-0.03835 -245.675,0.06629 -7.59281,-5.624452 c -11.11239,-8.665165 -26.79951,-13.360735 -42.49951,-13.460735 -15,-0.1 -34.28798,4.22929 -44.03173,14.869915 l -4.10889,4.146972 -25.18799,0.0791 c -25.300001,0.4 -29.264645,-0.425489 -29.264645,0.874512 0,1.299999 3.793457,0.990136 25.293455,1.390136 13.8,0.3 26.26897,-0.440411 26.66897,-0.04037 0.3,0.3 -6.49541,6.288617 -8.09541,8.188617 l -3.47346,3.140656 c 0,0 -9.88746,-0.07162 -16.89858,0.161761 -21.700002,0 -23.810183,-0.791823 -23.668027,1.212118 0.732019,0.534272 6.166307,0.337749 15.766307,0.337749 8.2,0 18.82608,-0.297365 20.52495,0.03691 2.5,1 0.23814,2.10938 -1.36186,3.90938 -4.5,5 -25.2627,13.554211 -35.762693,15.054211 -27.7,3.80001 -46.600976,-2.50107 -54.500976,-18.101086 -4,-8 -4.399805,-18.499805 -0.799805,-24.799805 3.6,-6.4 8.800976,-9.499414 17.000976,-9.899414 6,-0.4 7.399805,-0.0998 11.299805,2.200195 5.9,3.4 8.399512,9.2 6.499512,15 -1.3,3.9 -5.7,7.59961 -9,7.59961 -0.8,0 -3.799512,-1.100489 -6.499512,-2.500489 -6.5,-3.3 -7.400391,-3.200195 -7.40039,0.799805 0,6.8 10.300683,12.800684 18.200683,10.700684 13.8,-3.9 17.699121,-23.400196 6.599121,-33.700196 -13,-12.1 -38.199707,-5.299902 -43.199707,11.600098 -2,6.9 -2,10.699902 0,18.399902 3.3,12.9 13.300098,22.400406 28.100098,26.900406 10.3,3 29.099805,2.99893 39.799798,-0.10107 11.4,-3.3 22.72539,-9.8464 32.52539,-17.046406 l 6.89942,-6.005859 165.97558,0.152343 c 162.06742,-0.09775 162.46723,0.03571 165.93239,1.008763 5.7,3.6 15.06722,13.191349 15.66722,15.091349 1.98405,2.45239 -0.91231,5.28543 -2.46734,5.60174 -1.65585,0.33682 -5.93315,-1.27605 -9.03315,-4.27605 -5.9,-5.70001 -7.09873,-7.725411 -11.19873,-5.5254 -1.2,0.6 -4.70029,1.3004 -7.80029,1.4004 -6.8,0.3 -9.5,1.59931 -12,5.79931 -2.6,4.2 -2.50078,5.2003 0.19922,3.3003 3.1,-2.2 10.00088,-1.99971 12.90088,0.30029 5,3.9 10.51816,5.81836 15.61816,5.81836 5.5,0 6.44683,2.03311 12.93689,-3.2172 6.23284,-3.80065 6.24378,-3.80106 13.74378,-0.001 10.6,5.4 19.2,4.5999 28.5,-2.6001 2.9,-2.3 9.80088,-2.50029 12.90088,-0.30029 2.7,1.9 2.79921,0.8997 0.19921,-3.3003 -2.5,-4.2 -5.2,-5.49932 -12,-5.79931 -3.1,-0.1 -6.59882,-0.8004 -7.79882,-1.4004 -4.2,-2.200011 -6.8002,-1.3 -12.7002,4.5 -6.4,6.20001 -9.99971,7.0005 -11.69971,2.50049 -0.7,-2.1 -1.41982,-4.225 3.18018,-8.625 2.9,-2.800013 6.68671,-6.617786 8.96484,-8.311536 2.74219,-1.945313 5.81983,-2.265639 5.81983,-2.265639 l 164.28075,0.07423 165.30463,-0.137895 7.1732,5.536133 c 18,12.900017 33.97609,19.630107 53.77609,19.630107 9.5,0 12.4998,-0.40049 18.7998,-2.50049 22.6,-7.70001 33.50068,-26.000608 27.20068,-45.600608 -3.45,-10.65 -14.26963,-17.643164 -25.15869,-17.774414 z m -722.46757,8.986474 c 5.13067,0.638076 9.66634,1.669043 15.6478,3.683706 6.00623,2.143774 15.2393,6.215757 18.70746,9.061609 4.98101,3.722899 5.01681,3.922366 -2.52374,3.830127 -8.76561,0.15625 -73.86526,-0.02764 -78.09338,0.05674 -6.8823,0.370955 -1.4164,-3.069443 0.16827,-4.149931 1.5125,-1.031253 5.4,-4.127927 13.63259,-7.786334 4.98258,-2.012913 14.32891,-4.223296 18.50239,-4.761112 2.78644,-0.359075 7.309,-0.189173 7.309,-0.189173 0,0 3.77902,-0.07516 6.68524,0.254371 z m 576.26611,-0.221681 c 13.34354,-0.163547 22.81511,4.109414 27.66511,5.709414 7.53125,3.35 19.43452,10.861767 14.40647,10.987706 -8.34646,0.209057 -74.47161,0.267632 -79.42337,0.09321 -4.70852,-0.06685 6.34228,-7.667749 16.39776,-12.193931 6.82004,-3.156512 12.8619,-4.734421 19.95392,-4.613454 z M 245.34116,76.571825 c 0,0 2.8011,2.892982 4.02749,6.505856 0.80676,2.165728 1.66821,5.148842 1.59966,4.819075 -2.05937,0.0031 -104.69398,0.01569 -109.42523,-0.07493 2.71175,-2.425825 9.31703,-9.310837 11.08266,-11.142087 1.2,-0.500001 24.45051,0.138218 48.55035,0.05133 z m 494.15079,10e-7 46.23154,-10e-7 40.0957,-0.02344 3.39446,0.01611 c 3.2625,2.365624 14.85533,11.757323 14.65533,11.351073 -2.5125,-0.09063 -108.47536,0.149265 -109.69098,-0.18199 -0.3,-0.2 -0.44885,-7.90595 6.69489,-11.68095 z m -245.35182,0.08338 c 120,0.125 242.4807,-0.404845 241.76769,-0.08194 -0.6436,0.410886 -3.2781,3.780104 -4.05003,5.812123 l -1.28358,5.554798 -107.88198,-0.0012 -107.08594,-0.0064 c 0,0 -2.59699,-0.200737 -4.96418,0.807075 -0.825,0.117969 -7.86593,5.600781 -11.36593,8.800781 -3.4,3.199997 -6.27529,5.733017 -6.77529,5.733017 -0.5,0 -2.59484,-1.93332 -4.99484,-4.53331 -2.5,-2.5 -7.65059,-7.230451 -11.36773,-8.968665 -3.11569,-1.789864 -8.07258,-1.823056 -8.07258,-1.823056 L 355.95035,88.25231 254.66641,87.869467 252.708,82.515955 c -1.02145,-2.792245 -2.63825,-4.721989 -3.34151,-5.906678 -0.46208,-0.778402 124.77364,-0.07907 244.77364,0.04593 z"
     id="path2"
     sodipodi:nodetypes="sccscsccccccccscscccsccccccccccccccscsccccsccccccccscscccccccccccsccccccscccccccccccccccsccsscccccscscccsccsccssccccsscccccssccccccsccccccssssc" />
</svg>
